<?xml version="1.0" encoding="utf-8" ?>
<svg baseProfile="full" height="301" version="1.1" width="401" xmlns="http://www.w3.org/2000/svg" xmlns:ev="http://www.w3.org/2001/xml-events" xmlns:xlink="http://www.w3.org/1999/xlink"><defs><pattern height="20" id="id37" patternUnits="userSpaceOnUse" width="20"><rect fill="white" height="20" stroke="none" width="20" x="0" y="0" /><path d="M 20.00000 0 L 0 0 0 20.00000" fill="none" stroke="gray" stroke-width="0.5" /></pattern><pattern height="100" id="id39" patternUnits="userSpaceOnUse" width="100"><rect fill="url(#id37)" height="100" stroke="none" width="100" x="0" y="0" /><path d="M 100.00000 0 L 0 0 0 100.00000" fill="none" stroke="gray" stroke-width="1" /></pattern><marker id="id38" markerHeight="8" markerUnits="strokeWidth" markerWidth="12" orient="auto" refX="6" refY="4"><path d="M0,0 L0,8 L12,4 z" fill="black" /></marker></defs><rect fill="url(#id39)" height="100%" width="100%" x="0" y="0" /><g fill="black" stroke="black" stroke-width="0.05" transform="scale(20)"><g transform="translate(1.5,1.5)"><g transform="translate(0,0)"><line stroke-dasharray="0.2" x1="0" x2="2" y1="0" y2="0" /><path d="M 1.8 -0.2 l 0.4 0.4 m -0.4 0 l 0.4 -0.4" fill="none" /><circle cx="0" cy="0" r="0.2" stroke-width="0" /></g><path d="M 0 0 l 0.1 -0.4 l 0.1 -0.4" fill="none" marker-mid="url(#id38)" /><g transform="translate(-0.5,2)"><path d="M 0 0 l 0 0.2 m -0.15 0.15 l 0.3 0 m -0.15 -0.15 l 0 0.3" /><circle cx="0" cy="0.35" fill="none" r="0.15" /><line x1="-0.2" x2="0.2" y1="0" y2="0" /></g><path d="M -0.5 2 l 0.25 -1.0 l 0.25 -1.0" fill="none" marker-mid="url(#id38)" /></g><g transform="translate(6.5,1.5)"><g transform="translate(0,0)"><line stroke-dasharray="0.2" x1="0" x2="2" y1="0" y2="0" /><path d="M 1.8 -0.2 l 0.4 0.4 m -0.4 0 l 0.4 -0.4" fill="none" /><circle cx="0" cy="0" r="0.2" stroke-width="0" /></g><g transform="translate(-0.5,2)"><path d="M 0 0 l 0 0.2 m -0.15 0.15 l 0.3 0 m -0.15 -0.15 l 0 0.3" /><circle cx="0" cy="0.35" fill="none" r="0.15" /><line x1="-0.2" x2="0.2" y1="0" y2="0" /></g><g transform="translate(0.5,2)"><line x1="-0.2" x2="0.2" y1="0" y2="0" /></g><path d="M 0.5 2 l 0.1 -0.4 l 0.1 -0.4" fill="none" marker-mid="url(#id38)" /><path d="M -0.5 2 l 0.25 -1.0 l 0.25 -1.0" fill="none" marker-mid="url(#id38)" /><path d="M 0 0 l 0.25 1.0 l 0.25 1.0" fill="none" marker-mid="url(#id38)" /></g><g transform="translate(11.5,1.5)"><g transform="translate(0,0)"><line stroke-dasharray="0.2" x1="0" x2="2" y1="0" y2="0" /><circle cx="0" cy="0" r="0.2" stroke-width="0" /><circle cx="2" cy="0" r="0.2" stroke-width="0" /></g><path d="M 2 0 l 0.1 -0.4 l 0.1 -0.4" fill="none" marker-mid="url(#id38)" /><g transform="translate(1.0,2)"><line x1="-0.2" x2="0.2" y1="0" y2="0" /></g><g transform="translate(-0.5,2)"><path d="M 0 0 l 0 0.2 m -0.15 0.15 l 0.3 0 m -0.15 -0.15 l 0 0.3" /><circle cx="0" cy="0.35" fill="none" r="0.15" /><line x1="-0.2" x2="0.2" y1="0" y2="0" /></g><path d="M -0.5 2 l 0.25 -1.0 l 0.25 -1.0" fill="none" marker-mid="url(#id38)" /><path d="M 0 0 l 0.5 1.0 l 0.5 1.0" fill="none" marker-mid="url(#id38)" /><path d="M 1.0 2 l 0.5 -1.0 l 0.5 -1.0" fill="none" marker-mid="url(#id38)" /></g><g transform="translate(16.5,1.5)"><g transform="translate(0,0)"><line stroke-dasharray="0.2" x1="0" x2="2" y1="0" y2="0" /><circle cx="0" cy="0" r="0.2" stroke-width="0" /><circle cx="2" cy="0" r="0.2" stroke-width="0" /></g><g transform="translate(0.0,2)"><line x1="-0.2" x2="0.2" y1="0" y2="0" /></g><g transform="translate(1.5,2)"><path d="M 0 0 l 0 0.2 m -0.15 0.15 l 0.3 0 m -0.15 -0.15 l 0 0.3" /><circle cx="0" cy="0.35" fill="none" r="0.15" /><line x1="-0.2" x2="0.2" y1="0" y2="0" /></g><g transform="translate(2.5,2)"><line x1="-0.2" x2="0.2" y1="0" y2="0" /></g><path d="M 2.5 2 l 0.1 -0.4 l 0.1 -0.4" fill="none" marker-mid="url(#id38)" /><path d="M 1.5 2 l 0.25 -1.0 l 0.25 -1.0" fill="none" marker-mid="url(#id38)" /><path d="M 2.0 0 l 0.25 1.0 l 0.25 1.0" fill="none" marker-mid="url(#id38)" /><g transform="translate(0,0)"><path d="M 0 0 a 2.0 2.0 0 0 0 -0.267949192431 1.0 a 2.0 2.0 0 0 0 0.267949192431 1.0" fill="none" marker-mid="url(#id38)" /><path d="M 0.0 2 a 2.0 2.0 0 0 0 0.267949192431 -1.0 a 2.0 2.0 0 0 0 -0.267949192431 -1.0" fill="none" marker-mid="url(#id38)" /></g></g></g><path d="M 0 0 l 20 0 l -20 20" fill="#286ACC" /><text font-family="Monospace" font-size="10" font-weight="bold" text-anchor="start" x="5" y="12">d0_v</text><text font-family="Monospace" font-size="10" text-anchor="end" x="95" y="12">1/1</text><path d="M 100 0 l 20 0 l -20 20" fill="#286ACC" /><text font-family="Monospace" font-size="10" font-weight="bold" text-anchor="start" x="105" y="12">d1_v</text><text font-family="Monospace" font-size="10" text-anchor="end" x="195" y="12">-1/1</text><path d="M 200 0 l 20 0 l -20 20" fill="#286ACC" /><text font-family="Monospace" font-size="10" font-weight="bold" text-anchor="start" x="205" y="12">d2_v</text><text font-family="Monospace" font-size="10" text-anchor="end" x="295" y="12">-1/1</text><path d="M 300 0 l 20 0 l -20 20" fill="#286ACC" /><text font-family="Monospace" font-size="10" font-weight="bold" text-anchor="start" x="305" y="12">d3_v</text><text font-family="Monospace" font-size="10" text-anchor="end" x="395" y="12">-1/1</text></svg>